<mxfile host="app.diagrams.net" modified="2021-06-25T21:22:50.788Z" agent="5.0 (Windows)" etag="9l53Rb0qqrRKNTwCvKdm" version="13.6.6" type="github">
  <diagram id="TLkPJLO_rXAb08wiplHC" name="Page-1">
    <mxGraphModel dx="868" dy="479" grid="1" gridSize="10" guides="1" tooltips="1" connect="1" arrows="1" fold="1" page="1" pageScale="1" pageWidth="850" pageHeight="1100" math="0" shadow="0">
      <root>
        <mxCell id="0" />
        <mxCell id="1" parent="0" />
        <mxCell id="Kuj8ouRovAtnDa-c6B08-2" value="" style="rounded=1;whiteSpace=wrap;html=1;fontFamily=Verdana;" parent="1" vertex="1">
          <mxGeometry x="140" y="60" width="450" height="180" as="geometry" />
        </mxCell>
        <mxCell id="1dGk-xLJa61S_E6pHA25-1" value="DC Pump Drive" style="rounded=1;whiteSpace=wrap;html=1;fillColor=#fff2cc;strokeColor=#d6b656;fontFamily=Verdana;" parent="1" vertex="1">
          <mxGeometry x="150" y="90" width="110" height="40" as="geometry" />
        </mxCell>
        <mxCell id="Kuj8ouRovAtnDa-c6B08-3" style="edgeStyle=orthogonalEdgeStyle;rounded=0;orthogonalLoop=1;jettySize=auto;html=1;exitX=0.5;exitY=0;exitDx=0;exitDy=0;entryX=0.5;entryY=1;entryDx=0;entryDy=0;fontFamily=Verdana;startArrow=classic;startFill=1;" parent="1" source="1dGk-xLJa61S_E6pHA25-2" target="Kuj8ouRovAtnDa-c6B08-1" edge="1">
          <mxGeometry relative="1" as="geometry" />
        </mxCell>
        <mxCell id="1dGk-xLJa61S_E6pHA25-2" value="&lt;div&gt;Control Unit&lt;/div&gt;&lt;div&gt;PIC16F867A&lt;br&gt;&lt;/div&gt;" style="rounded=1;whiteSpace=wrap;html=1;fillColor=#e1d5e7;strokeColor=#9673a6;fontFamily=Verdana;" parent="1" vertex="1">
          <mxGeometry x="295" y="140" width="130" height="40" as="geometry" />
        </mxCell>
        <mxCell id="1dGk-xLJa61S_E6pHA25-3" value="&lt;div&gt;Communication Unit&lt;/div&gt;&lt;div&gt;1. RF transceiver Module&lt;/div&gt;&lt;div&gt;2. GSM MODEM (SIM900)&lt;br&gt;&lt;/div&gt;" style="rounded=1;whiteSpace=wrap;html=1;fillColor=#f8cecc;strokeColor=#b85450;fontFamily=Verdana;" parent="1" vertex="1">
          <mxGeometry x="450" y="94" width="130" height="100" as="geometry" />
        </mxCell>
        <mxCell id="1dGk-xLJa61S_E6pHA25-4" value="&lt;div&gt;Power Unit&lt;/div&gt;&lt;div&gt;9V LiFeO4 Battery&lt;br&gt;&lt;/div&gt;" style="rounded=1;whiteSpace=wrap;html=1;fillColor=#d5e8d4;strokeColor=#82b366;fontFamily=Verdana;" parent="1" vertex="1">
          <mxGeometry x="297" y="190" width="130" height="40" as="geometry" />
        </mxCell>
        <mxCell id="1dGk-xLJa61S_E6pHA25-5" value="Valve Contol" style="rounded=1;whiteSpace=wrap;html=1;fillColor=#fff2cc;strokeColor=#d6b656;fontFamily=Verdana;" parent="1" vertex="1">
          <mxGeometry x="150" y="140" width="110" height="40" as="geometry" />
        </mxCell>
        <mxCell id="Kuj8ouRovAtnDa-c6B08-1" value="&lt;div&gt;Display Unit&lt;/div&gt;&lt;div&gt;16 x 2 LCD&lt;br&gt;&lt;/div&gt;" style="rounded=1;whiteSpace=wrap;html=1;fillColor=#e1d5e7;strokeColor=#9673a6;fontFamily=Verdana;" parent="1" vertex="1">
          <mxGeometry x="295" y="80" width="130" height="40" as="geometry" />
        </mxCell>
        <mxCell id="Kuj8ouRovAtnDa-c6B08-4" value="" style="endArrow=classic;startArrow=classic;html=1;fontFamily=Verdana;entryX=1;entryY=0.5;entryDx=0;entryDy=0;exitX=0;exitY=0.5;exitDx=0;exitDy=0;" parent="1" source="1dGk-xLJa61S_E6pHA25-3" target="1dGk-xLJa61S_E6pHA25-2" edge="1">
          <mxGeometry width="50" height="50" relative="1" as="geometry">
            <mxPoint x="400" y="270" as="sourcePoint" />
            <mxPoint x="450" y="220" as="targetPoint" />
          </mxGeometry>
        </mxCell>
        <mxCell id="Kuj8ouRovAtnDa-c6B08-6" value="" style="endArrow=classic;html=1;fontFamily=Verdana;exitX=1;exitY=0.5;exitDx=0;exitDy=0;entryX=0;entryY=0.5;entryDx=0;entryDy=0;" parent="1" source="1dGk-xLJa61S_E6pHA25-5" target="1dGk-xLJa61S_E6pHA25-2" edge="1">
          <mxGeometry width="50" height="50" relative="1" as="geometry">
            <mxPoint x="260" y="200" as="sourcePoint" />
            <mxPoint x="310" y="150" as="targetPoint" />
          </mxGeometry>
        </mxCell>
        <mxCell id="Kuj8ouRovAtnDa-c6B08-7" value="" style="endArrow=none;html=1;fontFamily=Verdana;entryX=1;entryY=0.5;entryDx=0;entryDy=0;" parent="1" target="1dGk-xLJa61S_E6pHA25-1" edge="1">
          <mxGeometry width="50" height="50" relative="1" as="geometry">
            <mxPoint x="270" y="160" as="sourcePoint" />
            <mxPoint x="310" y="90" as="targetPoint" />
            <Array as="points">
              <mxPoint x="270" y="110" />
            </Array>
          </mxGeometry>
        </mxCell>
        <mxCell id="Kuj8ouRovAtnDa-c6B08-8" value="" style="endArrow=none;html=1;fontFamily=Verdana;exitX=0.42;exitY=1.026;exitDx=0;exitDy=0;exitPerimeter=0;entryX=0;entryY=0.5;entryDx=0;entryDy=0;" parent="1" source="1dGk-xLJa61S_E6pHA25-5" target="1dGk-xLJa61S_E6pHA25-4" edge="1">
          <mxGeometry width="50" height="50" relative="1" as="geometry">
            <mxPoint x="400" y="270" as="sourcePoint" />
            <mxPoint x="450" y="220" as="targetPoint" />
            <Array as="points">
              <mxPoint x="196" y="210" />
            </Array>
          </mxGeometry>
        </mxCell>
        <mxCell id="Kuj8ouRovAtnDa-c6B08-9" value="" style="endArrow=none;html=1;fontFamily=Verdana;exitX=0.149;exitY=0.833;exitDx=0;exitDy=0;exitPerimeter=0;entryX=0.546;entryY=0.991;entryDx=0;entryDy=0;entryPerimeter=0;" parent="1" target="1dGk-xLJa61S_E6pHA25-3" edge="1">
          <mxGeometry width="50" height="50" relative="1" as="geometry">
            <mxPoint x="427" y="209.66000000000005" as="sourcePoint" />
            <mxPoint x="513.9700000000001" y="209.72" as="targetPoint" />
            <Array as="points">
              <mxPoint x="521" y="210" />
            </Array>
          </mxGeometry>
        </mxCell>
        <mxCell id="Kuj8ouRovAtnDa-c6B08-10" value="" style="endArrow=classic;html=1;fontFamily=Verdana;entryX=0.5;entryY=1;entryDx=0;entryDy=0;" parent="1" target="1dGk-xLJa61S_E6pHA25-2" edge="1">
          <mxGeometry width="50" height="50" relative="1" as="geometry">
            <mxPoint x="360" y="190" as="sourcePoint" />
            <mxPoint x="305" y="170" as="targetPoint" />
          </mxGeometry>
        </mxCell>
        <mxCell id="y8CLTdTPDZlZgqFttJll-1" value="" style="rounded=1;whiteSpace=wrap;html=1;fontFamily=Verdana;" vertex="1" parent="1">
          <mxGeometry x="140" y="250" width="330" height="206" as="geometry" />
        </mxCell>
        <mxCell id="y8CLTdTPDZlZgqFttJll-3" style="edgeStyle=orthogonalEdgeStyle;rounded=0;orthogonalLoop=1;jettySize=auto;html=1;exitX=0.5;exitY=0;exitDx=0;exitDy=0;entryX=0.5;entryY=1;entryDx=0;entryDy=0;fontFamily=Verdana;startArrow=classic;startFill=1;endArrow=none;endFill=0;" edge="1" source="y8CLTdTPDZlZgqFttJll-4" target="y8CLTdTPDZlZgqFttJll-8" parent="1">
          <mxGeometry relative="1" as="geometry" />
        </mxCell>
        <mxCell id="y8CLTdTPDZlZgqFttJll-4" value="&lt;div&gt;Control Unit&lt;/div&gt;&lt;div&gt;PIC16F867A&lt;br&gt;&lt;/div&gt;" style="rounded=1;whiteSpace=wrap;html=1;fillColor=#e1d5e7;strokeColor=#9673a6;fontFamily=Verdana;" vertex="1" parent="1">
          <mxGeometry x="175" y="347" width="130" height="40" as="geometry" />
        </mxCell>
        <mxCell id="y8CLTdTPDZlZgqFttJll-5" value="&lt;div&gt;Communication Unit&lt;/div&gt;&lt;div&gt;RF transceiver Module&lt;/div&gt;" style="rounded=1;whiteSpace=wrap;html=1;fillColor=#f8cecc;strokeColor=#b85450;fontFamily=Verdana;" vertex="1" parent="1">
          <mxGeometry x="330" y="296" width="130" height="100" as="geometry" />
        </mxCell>
        <mxCell id="y8CLTdTPDZlZgqFttJll-6" value="&lt;div&gt;Power Unit&lt;/div&gt;&lt;div&gt;9V LiFeO4 Battery&lt;br&gt;&lt;/div&gt;" style="rounded=1;whiteSpace=wrap;html=1;fillColor=#d5e8d4;strokeColor=#82b366;fontFamily=Verdana;" vertex="1" parent="1">
          <mxGeometry x="177" y="406" width="130" height="40" as="geometry" />
        </mxCell>
        <mxCell id="y8CLTdTPDZlZgqFttJll-8" value="Water Level Sensor" style="rounded=1;whiteSpace=wrap;html=1;fillColor=#fff2cc;strokeColor=#d6b656;fontFamily=Verdana;" vertex="1" parent="1">
          <mxGeometry x="175" y="296" width="130" height="30" as="geometry" />
        </mxCell>
        <mxCell id="y8CLTdTPDZlZgqFttJll-9" value="" style="endArrow=classic;startArrow=classic;html=1;fontFamily=Verdana;entryX=1;entryY=0.5;entryDx=0;entryDy=0;exitX=0;exitY=0.5;exitDx=0;exitDy=0;" edge="1" source="y8CLTdTPDZlZgqFttJll-5" target="y8CLTdTPDZlZgqFttJll-4" parent="1">
          <mxGeometry width="50" height="50" relative="1" as="geometry">
            <mxPoint x="280" y="486" as="sourcePoint" />
            <mxPoint x="330" y="436" as="targetPoint" />
          </mxGeometry>
        </mxCell>
        <mxCell id="y8CLTdTPDZlZgqFttJll-12" value="" style="endArrow=none;html=1;fontFamily=Verdana;exitX=0;exitY=0.75;exitDx=0;exitDy=0;entryX=0;entryY=0.5;entryDx=0;entryDy=0;startArrow=classicThin;startFill=1;" edge="1" source="y8CLTdTPDZlZgqFttJll-8" target="y8CLTdTPDZlZgqFttJll-6" parent="1">
          <mxGeometry width="50" height="50" relative="1" as="geometry">
            <mxPoint x="76.20000000000005" y="397.03999999999996" as="sourcePoint" />
            <mxPoint x="330" y="436" as="targetPoint" />
            <Array as="points">
              <mxPoint x="160" y="319" />
              <mxPoint x="160" y="426" />
            </Array>
          </mxGeometry>
        </mxCell>
        <mxCell id="y8CLTdTPDZlZgqFttJll-13" value="" style="endArrow=none;html=1;fontFamily=Verdana;exitX=0.149;exitY=0.833;exitDx=0;exitDy=0;exitPerimeter=0;entryX=0.546;entryY=0.991;entryDx=0;entryDy=0;entryPerimeter=0;" edge="1" target="y8CLTdTPDZlZgqFttJll-5" parent="1">
          <mxGeometry width="50" height="50" relative="1" as="geometry">
            <mxPoint x="307" y="425.6600000000001" as="sourcePoint" />
            <mxPoint x="393.97000000000014" y="425.72" as="targetPoint" />
            <Array as="points">
              <mxPoint x="401" y="426" />
            </Array>
          </mxGeometry>
        </mxCell>
        <mxCell id="y8CLTdTPDZlZgqFttJll-14" value="" style="endArrow=classic;html=1;fontFamily=Verdana;entryX=0.5;entryY=1;entryDx=0;entryDy=0;" edge="1" target="y8CLTdTPDZlZgqFttJll-4" parent="1">
          <mxGeometry width="50" height="50" relative="1" as="geometry">
            <mxPoint x="240" y="406" as="sourcePoint" />
            <mxPoint x="185" y="386" as="targetPoint" />
          </mxGeometry>
        </mxCell>
        <mxCell id="y8CLTdTPDZlZgqFttJll-15" value="" style="verticalLabelPosition=bottom;verticalAlign=top;html=1;shadow=0;dashed=0;strokeWidth=1;shape=mxgraph.android.phone2;strokeColor=#c0c0c0;fontFamily=Verdana;" vertex="1" parent="1">
          <mxGeometry x="490" y="290" width="80" height="141" as="geometry" />
        </mxCell>
        <mxCell id="y8CLTdTPDZlZgqFttJll-16" value="&lt;div&gt;SMS &lt;br&gt;&lt;/div&gt;&lt;div&gt;Status&lt;/div&gt;" style="text;html=1;align=center;verticalAlign=middle;resizable=0;points=[];autosize=1;fontFamily=Verdana;" vertex="1" parent="1">
          <mxGeometry x="500" y="345.5" width="60" height="30" as="geometry" />
        </mxCell>
        <mxCell id="y8CLTdTPDZlZgqFttJll-17" value="Water Level Sensor" style="rounded=1;whiteSpace=wrap;html=1;fillColor=#fff2cc;strokeColor=#d6b656;fontFamily=Verdana;" vertex="1" parent="1">
          <mxGeometry x="177" y="260" width="130" height="30" as="geometry" />
        </mxCell>
        <mxCell id="y8CLTdTPDZlZgqFttJll-18" value="" style="endArrow=none;html=1;fontFamily=Verdana;startArrow=classicThin;startFill=1;" edge="1" parent="1">
          <mxGeometry width="50" height="50" relative="1" as="geometry">
            <mxPoint x="175" y="280" as="sourcePoint" />
            <mxPoint x="180" y="434" as="targetPoint" />
            <Array as="points">
              <mxPoint x="150" y="280" />
              <mxPoint x="150" y="434" />
            </Array>
          </mxGeometry>
        </mxCell>
        <mxCell id="y8CLTdTPDZlZgqFttJll-19" value="" style="endArrow=none;html=1;fontFamily=Verdana;rounded=0;" edge="1" parent="1">
          <mxGeometry width="50" height="50" relative="1" as="geometry">
            <mxPoint x="515" y="283" as="sourcePoint" />
            <mxPoint x="545" y="243" as="targetPoint" />
            <Array as="points">
              <mxPoint x="525" y="253" />
              <mxPoint x="535" y="273" />
            </Array>
          </mxGeometry>
        </mxCell>
        <mxCell id="y8CLTdTPDZlZgqFttJll-20" value="Remote Node" style="text;html=1;strokeColor=none;fillColor=none;align=center;verticalAlign=middle;whiteSpace=wrap;rounded=0;fontFamily=Verdana;fontStyle=1" vertex="1" parent="1">
          <mxGeometry x="350" y="260" width="90" height="20" as="geometry" />
        </mxCell>
        <mxCell id="y8CLTdTPDZlZgqFttJll-21" value="Central Node" style="text;html=1;strokeColor=none;fillColor=none;align=center;verticalAlign=middle;whiteSpace=wrap;rounded=0;fontFamily=Verdana;fontStyle=1" vertex="1" parent="1">
          <mxGeometry x="480" y="70" width="90" height="20" as="geometry" />
        </mxCell>
      </root>
    </mxGraphModel>
  </diagram>
</mxfile>
